<svg width="180" height="180" viewBox="0 0 180 180" fill="none" xmlns="http://www.w3.org/2000/svg">
<path d="M28 12.4822V167.518L152.048 180V0L28 12.4822ZM91.9157 38.5759C95.5118 38.3542 98.8467 38.4114 101.914 38.7508C105.049 39.0899 107.979 39.7105 110.697 40.6156C113.432 41.478 115.998 42.6247 118.391 44.057C120.798 45.4484 123.123 47.0978 125.365 49.0074L123.361 52.3477C122.695 53.5559 121.698 53.8677 120.373 53.2861C119.664 53.0225 118.65 52.3811 117.334 51.3644C116.022 50.3508 114.224 49.3151 111.947 48.2588C109.682 47.208 106.878 46.3114 103.547 45.5699C100.287 44.8317 96.3373 44.5913 91.7166 44.8415C85.6634 45.1692 80.2557 46.4895 75.4701 48.7864C70.7818 51.0548 66.8124 54.1404 63.5404 58.0388C60.3357 61.9043 57.867 66.5358 56.122 71.9385C54.4249 77.317 53.5795 83.3206 53.5795 89.9661C53.5795 96.7019 54.4249 102.774 56.122 108.198C57.867 113.646 60.376 118.324 63.6636 122.24C67.0198 126.19 71.1184 129.307 75.9807 131.587C80.9014 133.895 86.5137 135.23 92.8451 135.576C95.6457 135.729 98.2408 135.679 100.626 135.425C103.07 135.173 105.392 134.767 107.589 134.208C109.843 133.599 112.016 132.837 114.107 131.92C116.256 130.952 118.439 129.859 120.657 128.638V100.624L101.846 100.392C101.348 100.386 100.92 100.214 100.558 99.8743C100.243 99.5356 100.084 99.1508 100.084 98.7202V94.7013L127.306 94.8532V132.121C122.244 135.559 116.912 138.084 111.321 139.711C105.803 141.316 99.6793 141.903 92.9782 141.49C85.5985 141.035 79.0758 139.443 73.373 136.737C67.7488 134.022 63.004 130.425 59.1094 125.951C55.2927 121.475 52.374 116.192 50.3334 110.091C48.3429 104.023 47.3514 97.3223 47.3514 89.9663C47.3514 82.6103 48.323 75.9325 50.2734 69.9102C52.2736 63.8117 55.1316 58.5536 58.8652 54.1287C62.6751 49.6143 67.3116 46.0249 72.8031 43.3655C78.3695 40.623 84.7284 39.0189 91.9157 38.5759Z" fill="#196030"/>
</svg>
