<svg width="340" height="61" viewBox="0 0 340 61" fill="none" xmlns="http://www.w3.org/2000/svg">
<path d="M0 8C0 3.58172 3.58172 0 8 0H332C336.418 0 340 3.58172 340 8V53C340 57.4183 336.418 61 332 61H8C3.58172 61 0 57.4183 0 53V8Z" fill="#F95B23"/>
<path d="M84.4347 38V23.4545H93.8949V25.6634H87.0696V29.6122H93.4048V31.821H87.0696V35.7912H93.9517V38H84.4347Z" fill="white"/>
<path d="M108.536 23.4545V38H106.192L99.3388 28.0923H99.218V38H96.5831V23.4545H98.941L105.788 33.3693H105.915V23.4545H108.536Z" fill="white"/>
<path d="M110.768 25.6634V23.4545H122.373V25.6634H117.877V38H115.264V25.6634H110.768Z" fill="white"/>
<path d="M124.61 38V23.4545H130.065C131.182 23.4545 132.12 23.6487 132.877 24.0369C133.64 24.4252 134.215 24.9697 134.603 25.6705C134.996 26.3665 135.193 27.1785 135.193 28.1065C135.193 29.0393 134.994 29.849 134.596 30.5355C134.203 31.2173 133.623 31.7453 132.856 32.1193C132.089 32.4886 131.147 32.6733 130.029 32.6733H126.145V30.4858H129.674C130.328 30.4858 130.863 30.3958 131.279 30.2159C131.696 30.0312 132.004 29.7637 132.203 29.4134C132.406 29.0582 132.508 28.6226 132.508 28.1065C132.508 27.5904 132.406 27.1501 132.203 26.7855C131.999 26.4162 131.689 26.1368 131.272 25.9474C130.856 25.7533 130.318 25.6562 129.66 25.6562H127.245V38H124.61ZM132.125 31.4091L135.725 38H132.785L129.248 31.4091H132.125Z" fill="white"/>
<path d="M139.486 38H136.674L141.794 23.4545H145.047L150.175 38H147.363L143.478 26.4375H143.364L139.486 38ZM139.578 32.2969H147.249V34.4134H139.578V32.2969Z" fill="white"/>
<path d="M152.091 38V23.4545H157.545C158.663 23.4545 159.6 23.6487 160.358 24.0369C161.12 24.4252 161.696 24.9697 162.084 25.6705C162.477 26.3665 162.673 27.1785 162.673 28.1065C162.673 29.0393 162.474 29.849 162.077 30.5355C161.684 31.2173 161.104 31.7453 160.337 32.1193C159.57 32.4886 158.627 32.6733 157.51 32.6733H153.625V30.4858H157.155C157.808 30.4858 158.343 30.3958 158.76 30.2159C159.177 30.0312 159.484 29.7637 159.683 29.4134C159.887 29.0582 159.989 28.6226 159.989 28.1065C159.989 27.5904 159.887 27.1501 159.683 26.7855C159.48 26.4162 159.17 26.1368 158.753 25.9474C158.336 25.7533 157.799 25.6562 157.141 25.6562H154.726V38H152.091ZM159.605 31.4091L163.206 38H160.266L156.729 31.4091H159.605Z" fill="white"/>
<path d="M170.06 38V23.4545H179.52V25.6634H172.695V29.6122H179.03V31.821H172.695V35.7912H179.577V38H170.06Z" fill="white"/>
<path d="M182.208 23.4545H185.433L189.751 33.9943H189.921L194.239 23.4545H197.464V38H194.935V28.0071H194.8L190.781 37.9574H188.891L184.871 27.9858H184.737V38H182.208V23.4545Z" fill="white"/>
<path d="M217.744 28.3622H215.088C215.012 27.9266 214.873 27.5407 214.669 27.2045C214.465 26.8636 214.212 26.5748 213.909 26.3381C213.606 26.1013 213.26 25.9238 212.872 25.8054C212.489 25.6823 212.074 25.6207 211.629 25.6207C210.839 25.6207 210.138 25.8196 209.527 26.2173C208.916 26.6103 208.438 27.188 208.092 27.9503C207.747 28.7079 207.574 29.6335 207.574 30.7273C207.574 31.84 207.747 32.7775 208.092 33.5398C208.443 34.2973 208.921 34.8703 209.527 35.2585C210.138 35.642 210.836 35.8338 211.622 35.8338C212.058 35.8338 212.465 35.777 212.844 35.6634C213.227 35.545 213.571 35.3722 213.874 35.1449C214.181 34.9176 214.439 34.6383 214.648 34.3068C214.861 33.9754 215.008 33.5966 215.088 33.1705L217.744 33.1847C217.645 33.8759 217.429 34.5246 217.098 35.1307C216.771 35.7367 216.343 36.2718 215.812 36.7358C215.282 37.1951 214.662 37.5549 213.952 37.8153C213.241 38.071 212.453 38.1989 211.587 38.1989C210.308 38.1989 209.167 37.9029 208.163 37.3111C207.16 36.7192 206.369 35.8646 205.791 34.7472C205.214 33.6297 204.925 32.2898 204.925 30.7273C204.925 29.16 205.216 27.8201 205.798 26.7074C206.381 25.59 207.174 24.7353 208.178 24.1435C209.181 23.5516 210.318 23.2557 211.587 23.2557C212.396 23.2557 213.149 23.3693 213.845 23.5966C214.541 23.8239 215.161 24.1577 215.706 24.598C216.25 25.0336 216.698 25.5687 217.048 26.2031C217.403 26.8329 217.635 27.5526 217.744 28.3622Z" fill="white"/>
<path d="M233.154 30.7273C233.154 32.2945 232.861 33.6368 232.274 34.7543C231.691 35.867 230.896 36.7192 229.887 37.3111C228.884 37.9029 227.745 38.1989 226.471 38.1989C225.198 38.1989 224.056 37.9029 223.048 37.3111C222.044 36.7145 221.249 35.8598 220.662 34.7472C220.079 33.6297 219.788 32.2898 219.788 30.7273C219.788 29.16 220.079 27.8201 220.662 26.7074C221.249 25.59 222.044 24.7353 223.048 24.1435C224.056 23.5516 225.198 23.2557 226.471 23.2557C227.745 23.2557 228.884 23.5516 229.887 24.1435C230.896 24.7353 231.691 25.59 232.274 26.7074C232.861 27.8201 233.154 29.16 233.154 30.7273ZM230.505 30.7273C230.505 29.6241 230.333 28.6937 229.987 27.9361C229.646 27.1738 229.172 26.5985 228.566 26.2102C227.96 25.8172 227.262 25.6207 226.471 25.6207C225.681 25.6207 224.982 25.8172 224.376 26.2102C223.77 26.5985 223.294 27.1738 222.949 27.9361C222.608 28.6937 222.437 29.6241 222.437 30.7273C222.437 31.8305 222.608 32.7633 222.949 33.5256C223.294 34.2831 223.77 34.8584 224.376 35.2514C224.982 35.6397 225.681 35.8338 226.471 35.8338C227.262 35.8338 227.96 35.6397 228.566 35.2514C229.172 34.8584 229.646 34.2831 229.987 33.5256C230.333 32.7633 230.505 31.8305 230.505 30.7273Z" fill="white"/>
<path d="M247.599 23.4545V38H245.255L238.401 28.0923H238.281V38H235.646V23.4545H238.004L244.85 33.3693H244.978V23.4545H247.599Z" fill="white"/>
<path d="M249.831 25.6634V23.4545H261.436V25.6634H256.94V38H254.326V25.6634H249.831Z" fill="white"/>
<path d="M263.783 38H260.971L266.091 23.4545H269.344L274.472 38H271.659L267.775 26.4375H267.661L263.783 38ZM263.875 32.2969H271.546V34.4134H263.875V32.2969Z" fill="white"/>
<path d="M273.991 25.6634V23.4545H285.596V25.6634H281.1V38H278.487V25.6634H273.991Z" fill="white"/>
<path d="M300.186 30.7273C300.186 32.2945 299.892 33.6368 299.305 34.7543C298.723 35.867 297.927 36.7192 296.919 37.3111C295.915 37.9029 294.776 38.1989 293.502 38.1989C292.229 38.1989 291.088 37.9029 290.079 37.3111C289.075 36.7145 288.28 35.8598 287.693 34.7472C287.11 33.6297 286.819 32.2898 286.819 30.7273C286.819 29.16 287.11 27.8201 287.693 26.7074C288.28 25.59 289.075 24.7353 290.079 24.1435C291.088 23.5516 292.229 23.2557 293.502 23.2557C294.776 23.2557 295.915 23.5516 296.919 24.1435C297.927 24.7353 298.723 25.59 299.305 26.7074C299.892 27.8201 300.186 29.16 300.186 30.7273ZM297.537 30.7273C297.537 29.6241 297.364 28.6937 297.018 27.9361C296.677 27.1738 296.204 26.5985 295.598 26.2102C294.992 25.8172 294.293 25.6207 293.502 25.6207C292.712 25.6207 292.013 25.8172 291.407 26.2102C290.801 26.5985 290.325 27.1738 289.98 27.9361C289.639 28.6937 289.468 29.6241 289.468 30.7273C289.468 31.8305 289.639 32.7633 289.98 33.5256C290.325 34.2831 290.801 34.8584 291.407 35.2514C292.013 35.6397 292.712 35.8338 293.502 35.8338C294.293 35.8338 294.992 35.6397 295.598 35.2514C296.204 34.8584 296.677 34.2831 297.018 33.5256C297.364 32.7633 297.537 31.8305 297.537 30.7273Z" fill="white"/>
<path d="M22.0567 46.0858L24.3017 37.89C22.9167 35.4917 22.1883 32.77 22.1892 29.9825C22.1933 21.2617 29.29 14.1667 38.0117 14.1667C42.2442 14.1683 46.2158 15.8158 49.2033 18.805C52.19 21.795 53.835 25.7683 53.8333 29.995C53.83 38.7158 46.7317 45.8117 38.0117 45.8117H38.005C35.3575 45.8108 32.755 45.1467 30.4442 43.8858L22.0567 46.0858Z" fill="white"/>
<path d="M22.0567 46.5025C21.9467 46.5025 21.84 46.4592 21.7608 46.3792C21.6567 46.2733 21.6158 46.1192 21.655 45.9767L23.8542 37.9467C22.4908 35.525 21.7717 32.775 21.7733 29.9833C21.7767 21.0317 29.0608 13.75 38.0117 13.75C42.3533 13.7517 46.4325 15.4425 49.4983 18.5108C52.5642 21.58 54.2517 25.6583 54.25 29.995C54.2467 38.9458 46.9617 46.2283 38.0117 46.2283C35.3542 46.2275 32.725 45.5717 30.3917 44.3308L22.1625 46.4883C22.1275 46.4983 22.0925 46.5025 22.0567 46.5025Z" fill="white"/>
<path d="M38.0117 14.1667C42.2442 14.1683 46.2158 15.8158 49.2033 18.805C52.19 21.795 53.835 25.7683 53.8333 29.995C53.83 38.7158 46.7317 45.8117 38.0117 45.8117H38.005C35.3575 45.8108 32.755 45.1467 30.4442 43.8858L22.0567 46.0858L24.3017 37.89C22.9167 35.4917 22.1883 32.77 22.1892 29.9825C22.1933 21.2617 29.29 14.1667 38.0117 14.1667ZM38.0117 13.3333C28.8317 13.3333 21.36 20.8017 21.3558 29.9825C21.355 32.7883 22.0633 35.5533 23.4067 38.0008L21.2525 45.8667C21.1742 46.1542 21.2542 46.4608 21.4642 46.6725C21.6225 46.8325 21.8367 46.92 22.0567 46.92C22.1275 46.92 22.1983 46.9108 22.2683 46.8925L30.3408 44.7758C32.6975 45.9992 35.3392 46.645 38.005 46.6458C47.1917 46.6458 54.6633 39.1767 54.6675 29.9958C54.6692 25.5467 52.9383 21.3633 49.7942 18.2167C46.6483 15.0692 42.4642 13.335 38.0117 13.3333Z" fill="#CFD8DC"/>
<path d="M47.3133 20.6933C44.83 18.2083 41.5292 16.8392 38.0158 16.8383C30.7625 16.8383 24.8633 22.735 24.86 29.9833C24.8592 32.4675 25.5542 34.8858 26.8708 36.98L27.1842 37.4775L25.855 42.3283L30.8325 41.0233L31.3133 41.3083C33.3317 42.5067 35.6467 43.14 38.0067 43.1408H38.0117C45.26 43.1408 51.1592 37.2433 51.1617 29.9942C51.1625 26.4817 49.7967 23.1783 47.3133 20.6933Z" fill="#F95B23"/>
<path fill-rule="evenodd" clip-rule="evenodd" d="M34.0567 23.3708C33.7608 22.7125 33.4492 22.6992 33.1667 22.6875C32.9358 22.6775 32.6725 22.6783 32.4092 22.6783C32.1458 22.6783 31.7175 22.7775 31.355 23.1733C30.9925 23.5692 29.9708 24.525 29.9708 26.47C29.9708 28.415 31.3875 30.295 31.585 30.5583C31.7825 30.8217 34.32 34.9408 38.3383 36.5258C41.6775 37.8425 42.3575 37.5808 43.0825 37.515C43.8075 37.4492 45.4217 36.5592 45.7508 35.6358C46.08 34.7125 46.08 33.9217 45.9817 33.7567C45.8825 33.5917 45.6192 33.4933 45.2242 33.295C44.8292 33.0967 42.885 32.1408 42.5225 32.0092C42.16 31.8775 41.8967 31.8117 41.6325 32.2075C41.3692 32.6025 40.6117 33.4933 40.3808 33.7567C40.15 34.0208 39.9192 34.0542 39.5242 33.8558C39.1292 33.6575 37.8558 33.2408 36.345 31.8942C35.17 30.8467 34.3767 29.5525 34.1458 29.1567C33.915 28.7617 34.1208 28.5475 34.3192 28.35C34.4967 28.1725 34.7142 27.8883 34.9125 27.6575C35.11 27.4267 35.1758 27.2617 35.3075 26.9983C35.4392 26.7342 35.3733 26.5033 35.2742 26.3058C35.1767 26.1075 34.4083 24.1525 34.0567 23.3708Z" fill="white"/>
</svg>
