<svg width="406" height="73" viewBox="0 0 406 73" fill="none" xmlns="http://www.w3.org/2000/svg">
<path d="M0 8C0 3.58172 3.58172 0 8 0H398C402.418 0 406 3.58172 406 8V65C406 69.4183 402.418 73 398 73H8.00001C3.58173 73 0 69.4183 0 65V8Z" fill="#F95B23"/>
<path d="M85.8651 47V28.0909H98.1634V30.9624H89.2905V36.0959H97.5263V38.9673H89.2905V44.1286H98.2372V47H85.8651Z" fill="white"/>
<path d="M117.197 28.0909V47H114.15L105.24 34.12H105.083V47H101.658V28.0909H104.723L113.624 40.9801H113.79V28.0909H117.197Z" fill="white"/>
<path d="M120.099 30.9624V28.0909H135.185V30.9624H129.341V47H125.943V30.9624H120.099Z" fill="white"/>
<path d="M138.094 47V28.0909H145.184C146.637 28.0909 147.856 28.3433 148.841 28.848C149.832 29.3527 150.58 30.0606 151.084 30.9716C151.595 31.8764 151.851 32.9321 151.851 34.1385C151.851 35.3511 151.592 36.4036 151.075 37.2962C150.564 38.1825 149.81 38.8688 148.813 39.3551C147.816 39.8352 146.591 40.0753 145.138 40.0753H140.088V37.2315H144.677C145.526 37.2315 146.222 37.1146 146.763 36.8807C147.305 36.6406 147.705 36.2928 147.964 35.8374C148.228 35.3757 148.361 34.8094 148.361 34.1385C148.361 33.4676 148.228 32.8951 147.964 32.4212C147.699 31.9411 147.296 31.5779 146.754 31.3317C146.212 31.0793 145.514 30.9531 144.658 30.9531H141.519V47H138.094ZM147.862 38.4318L152.543 47H148.721L144.123 38.4318H147.862Z" fill="white"/>
<path d="M157.432 47H153.776L160.433 28.0909H164.661L171.328 47H167.671L162.621 31.9688H162.473L157.432 47ZM157.552 39.5859H167.524V42.3374H157.552V39.5859Z" fill="white"/>
<path d="M173.818 47V28.0909H180.909C182.362 28.0909 183.58 28.3433 184.565 28.848C185.556 29.3527 186.304 30.0606 186.809 30.9716C187.32 31.8764 187.575 32.9321 187.575 34.1385C187.575 35.3511 187.317 36.4036 186.8 37.2962C186.289 38.1825 185.535 38.8688 184.538 39.3551C183.54 39.8352 182.316 40.0753 180.863 40.0753H175.812V37.2315H180.401C181.251 37.2315 181.946 37.1146 182.488 36.8807C183.03 36.6406 183.43 36.2928 183.688 35.8374C183.953 35.3757 184.085 34.8094 184.085 34.1385C184.085 33.4676 183.953 32.8951 183.688 32.4212C183.424 31.9411 183.02 31.5779 182.479 31.3317C181.937 31.0793 181.238 30.9531 180.383 30.9531H177.244V47H173.818ZM183.587 38.4318L188.268 47H184.445L179.847 38.4318H183.587Z" fill="white"/>
<path d="M197.178 47V28.0909H209.476V30.9624H200.603V36.0959H208.839V38.9673H200.603V44.1286H209.55V47H197.178Z" fill="white"/>
<path d="M212.971 28.0909H217.162L222.776 41.7926H222.998L228.611 28.0909H232.803V47H229.516V34.0092H229.341L224.115 46.9446H221.659L216.433 33.9815H216.257V47H212.971V28.0909Z" fill="white"/>
<path d="M259.168 34.4709H255.714C255.616 33.9046 255.434 33.4029 255.17 32.9659C254.905 32.5227 254.576 32.1473 254.182 31.8395C253.788 31.5317 253.339 31.3009 252.834 31.147C252.335 30.987 251.797 30.907 251.218 30.907C250.19 30.907 249.279 31.1655 248.485 31.6825C247.691 32.1934 247.069 32.9444 246.62 33.9354C246.171 34.9202 245.946 36.1236 245.946 37.5455C245.946 38.992 246.171 40.2107 246.62 41.2017C247.076 42.1866 247.697 42.9313 248.485 43.4361C249.279 43.9347 250.187 44.1839 251.209 44.1839C251.775 44.1839 252.304 44.1101 252.797 43.9624C253.295 43.8085 253.742 43.5838 254.136 43.2884C254.536 42.9929 254.871 42.6297 255.142 42.1989C255.419 41.768 255.61 41.2756 255.714 40.7216L259.168 40.7401C259.038 41.6387 258.758 42.482 258.327 43.2699C257.903 44.0578 257.346 44.7533 256.656 45.3565C255.967 45.9536 255.161 46.4214 254.237 46.7599C253.314 47.0923 252.289 47.2585 251.163 47.2585C249.501 47.2585 248.017 46.8738 246.712 46.1044C245.407 45.335 244.38 44.224 243.629 42.7713C242.878 41.3187 242.502 39.5767 242.502 37.5455C242.502 35.5081 242.881 33.7661 243.638 32.3196C244.395 30.867 245.426 29.7559 246.731 28.9865C248.036 28.2171 249.513 27.8324 251.163 27.8324C252.215 27.8324 253.194 27.9801 254.099 28.2756C255.004 28.571 255.81 29.005 256.518 29.5774C257.226 30.1437 257.807 30.8393 258.263 31.6641C258.724 32.4827 259.026 33.4183 259.168 34.4709Z" fill="white"/>
<path d="M279.201 37.5455C279.201 39.5829 278.819 41.3279 278.056 42.7805C277.299 44.227 276.265 45.335 274.954 46.1044C273.649 46.8738 272.168 47.2585 270.513 47.2585C268.857 47.2585 267.373 46.8738 266.062 46.1044C264.757 45.3288 263.723 44.2178 262.96 42.7713C262.203 41.3187 261.824 39.5767 261.824 37.5455C261.824 35.5081 262.203 33.7661 262.96 32.3196C263.723 30.867 264.757 29.7559 266.062 28.9865C267.373 28.2171 268.857 27.8324 270.513 27.8324C272.168 27.8324 273.649 28.2171 274.954 28.9865C276.265 29.7559 277.299 30.867 278.056 32.3196C278.819 33.7661 279.201 35.5081 279.201 37.5455ZM275.757 37.5455C275.757 36.1113 275.532 34.9017 275.083 33.9169C274.64 32.9259 274.024 32.178 273.236 31.6733C272.448 31.1624 271.541 30.907 270.513 30.907C269.485 30.907 268.577 31.1624 267.789 31.6733C267.001 32.178 266.382 32.9259 265.933 33.9169C265.49 34.9017 265.268 36.1113 265.268 37.5455C265.268 38.9796 265.49 40.1922 265.933 41.1832C266.382 42.1681 267.001 42.916 267.789 43.4268C268.577 43.9316 269.485 44.1839 270.513 44.1839C271.541 44.1839 272.448 43.9316 273.236 43.4268C274.024 42.916 274.64 42.1681 275.083 41.1832C275.532 40.1922 275.757 38.9796 275.757 37.5455Z" fill="white"/>
<path d="M297.978 28.0909V47H294.931L286.022 34.12H285.865V47H282.439V28.0909H285.505L294.405 40.9801H294.571V28.0909H297.978Z" fill="white"/>
<path d="M300.88 30.9624V28.0909H315.966V30.9624H310.122V47H306.724V30.9624H300.88Z" fill="white"/>
<path d="M319.018 47H315.362L322.019 28.0909H326.247L332.914 47H329.257L324.207 31.9688H324.059L319.018 47ZM319.138 39.5859H329.11V42.3374H319.138V39.5859Z" fill="white"/>
<path d="M332.288 30.9624V28.0909H347.375V30.9624H341.53V47H338.132V30.9624H332.288Z" fill="white"/>
<path d="M366.341 37.5455C366.341 39.5829 365.96 41.3279 365.197 42.7805C364.439 44.227 363.405 45.335 362.094 46.1044C360.789 46.8738 359.309 47.2585 357.653 47.2585C355.997 47.2585 354.514 46.8738 353.203 46.1044C351.898 45.3288 350.864 44.2178 350.101 42.7713C349.344 41.3187 348.965 39.5767 348.965 37.5455C348.965 35.5081 349.344 33.7661 350.101 32.3196C350.864 30.867 351.898 29.7559 353.203 28.9865C354.514 28.2171 355.997 27.8324 357.653 27.8324C359.309 27.8324 360.789 28.2171 362.094 28.9865C363.405 29.7559 364.439 30.867 365.197 32.3196C365.96 33.7661 366.341 35.5081 366.341 37.5455ZM362.898 37.5455C362.898 36.1113 362.673 34.9017 362.224 33.9169C361.78 32.9259 361.165 32.178 360.377 31.6733C359.589 31.1624 358.681 30.907 357.653 30.907C356.625 30.907 355.717 31.1624 354.93 31.6733C354.142 32.178 353.523 32.9259 353.074 33.9169C352.631 34.9017 352.409 36.1113 352.409 37.5455C352.409 38.9796 352.631 40.1922 353.074 41.1832C353.523 42.1681 354.142 42.916 354.93 43.4268C355.717 43.9316 356.625 44.1839 357.653 44.1839C358.681 44.1839 359.589 43.9316 360.377 43.4268C361.165 42.916 361.78 42.1681 362.224 41.1832C362.673 40.1922 362.898 38.9796 362.898 37.5455Z" fill="white"/>
<path d="M24.868 56.303L27.562 46.468C25.9 43.59 25.026 40.324 25.027 36.979C25.032 26.514 33.548 18 44.014 18C49.093 18.002 53.859 19.979 57.444 23.566C61.028 27.154 63.002 31.922 63 36.994C62.996 47.459 54.478 55.974 44.014 55.974H44.006C40.829 55.973 37.706 55.176 34.933 53.663L24.868 56.303Z" fill="white"/>
<path d="M24.868 56.803C24.736 56.803 24.608 56.751 24.513 56.655C24.388 56.528 24.339 56.343 24.386 56.172L27.025 46.536C25.389 43.63 24.526 40.33 24.528 36.98C24.532 26.238 33.273 17.5 44.014 17.5C49.224 17.502 54.119 19.531 57.798 23.213C61.477 26.896 63.502 31.79 63.5 36.994C63.496 47.735 54.754 56.474 44.014 56.474C40.825 56.473 37.67 55.686 34.87 54.197L24.995 56.786C24.953 56.798 24.911 56.803 24.868 56.803Z" fill="white"/>
<path d="M44.014 18C49.093 18.002 53.859 19.979 57.444 23.566C61.028 27.154 63.002 31.922 63 36.994C62.996 47.459 54.478 55.974 44.014 55.974H44.006C40.829 55.973 37.706 55.176 34.933 53.663L24.868 56.303L27.562 46.468C25.9 43.59 25.026 40.324 25.027 36.979C25.032 26.514 33.548 18 44.014 18ZM44.014 17C32.998 17 24.032 25.962 24.027 36.979C24.026 40.346 24.876 43.664 26.488 46.601L23.903 56.04C23.809 56.385 23.905 56.753 24.157 57.007C24.347 57.199 24.604 57.304 24.868 57.304C24.953 57.304 25.038 57.293 25.122 57.271L34.809 54.731C37.637 56.199 40.807 56.974 44.006 56.975C55.03 56.975 63.996 48.012 64.001 36.995C64.003 31.656 61.926 26.636 58.153 22.86C54.378 19.083 49.357 17.002 44.014 17Z" fill="#CFD8DC"/>
<path d="M55.176 25.832C52.196 22.85 48.235 21.207 44.019 21.206C35.315 21.206 28.236 28.282 28.232 36.98C28.231 39.961 29.065 42.863 30.645 45.376L31.021 45.973L29.426 51.794L35.399 50.228L35.976 50.57C38.398 52.008 41.176 52.768 44.008 52.769H44.014C52.712 52.769 59.791 45.692 59.794 36.993C59.795 32.778 58.156 28.814 55.176 25.832Z" fill="#F95B23"/>
<path fill-rule="evenodd" clip-rule="evenodd" d="M39.268 29.045C38.913 28.255 38.539 28.239 38.2 28.225C37.923 28.213 37.607 28.214 37.291 28.214C36.975 28.214 36.461 28.333 36.026 28.808C35.591 29.283 34.365 30.43 34.365 32.764C34.365 35.098 36.065 37.354 36.302 37.67C36.539 37.986 39.584 42.929 44.406 44.831C48.413 46.411 49.229 46.097 50.099 46.018C50.969 45.939 52.906 44.871 53.301 43.763C53.696 42.655 53.696 41.706 53.578 41.508C53.459 41.31 53.143 41.192 52.669 40.954C52.195 40.716 49.862 39.569 49.427 39.411C48.992 39.253 48.676 39.174 48.359 39.649C48.043 40.123 47.134 41.192 46.857 41.508C46.58 41.825 46.303 41.865 45.829 41.627C45.355 41.389 43.827 40.889 42.014 39.273C40.604 38.016 39.652 36.463 39.375 35.988C39.098 35.514 39.345 35.257 39.583 35.02C39.796 34.807 40.057 34.466 40.295 34.189C40.532 33.912 40.611 33.714 40.769 33.398C40.927 33.081 40.848 32.804 40.729 32.567C40.612 32.329 39.69 29.983 39.268 29.045Z" fill="white"/>
</svg>
