<svg width="270" height="73" viewBox="0 0 270 73" fill="none" xmlns="http://www.w3.org/2000/svg">
<rect width="270" height="73" rx="8" fill="black"/>
<path d="M102.357 47V28.0909H105.783V44.1286H114.111V47H102.357ZM123.214 47.277C121.793 47.277 120.565 46.9815 119.531 46.3906C118.503 45.7936 117.712 44.9503 117.158 43.8608C116.604 42.7652 116.327 41.4756 116.327 39.9922C116.327 38.5334 116.604 37.2531 117.158 36.1513C117.718 35.0433 118.5 34.1816 119.503 33.5661C120.506 32.9444 121.685 32.6335 123.039 32.6335C123.913 32.6335 124.738 32.7751 125.513 33.0582C126.295 33.3352 126.985 33.7661 127.582 34.3509C128.185 34.9356 128.659 35.6804 129.004 36.5852C129.348 37.4839 129.521 38.5549 129.521 39.7983V40.8232H117.896V38.5703H126.317C126.311 37.9302 126.172 37.3608 125.901 36.8622C125.63 36.3575 125.252 35.9605 124.766 35.6712C124.286 35.3819 123.725 35.2372 123.085 35.2372C122.402 35.2372 121.802 35.4034 121.285 35.7358C120.768 36.062 120.365 36.4929 120.075 37.0284C119.792 37.5578 119.647 38.1394 119.641 38.7734V40.7401C119.641 41.5649 119.792 42.2727 120.094 42.8636C120.395 43.4484 120.817 43.8977 121.359 44.2116C121.9 44.5194 122.534 44.6733 123.261 44.6733C123.747 44.6733 124.187 44.6056 124.581 44.4702C124.975 44.3286 125.317 44.1224 125.606 43.8516C125.895 43.5807 126.114 43.2453 126.261 42.8452L129.382 43.196C129.185 44.0208 128.81 44.741 128.256 45.3565C127.708 45.9659 127.006 46.4399 126.151 46.7784C125.295 47.1108 124.316 47.277 123.214 47.277ZM139.43 32.8182V35.4034H131.277V32.8182H139.43ZM133.29 29.4205H136.632V42.7344C136.632 43.1837 136.7 43.5284 136.835 43.7685C136.977 44.0024 137.162 44.1624 137.389 44.2486C137.617 44.3348 137.869 44.3778 138.146 44.3778C138.356 44.3778 138.547 44.3625 138.719 44.3317C138.897 44.3009 139.033 44.2732 139.125 44.2486L139.688 46.8615C139.51 46.9231 139.254 46.9908 138.922 47.0646C138.596 47.1385 138.196 47.1816 137.722 47.1939C136.885 47.2185 136.131 47.0923 135.46 46.8153C134.789 46.5322 134.256 46.0952 133.862 45.5043C133.475 44.9134 133.284 44.1747 133.29 43.2884V29.4205ZM144.533 28.0909V35.0526H141.985V28.0909H144.533ZM158.969 36.5668L155.922 36.8991C155.836 36.5914 155.685 36.3021 155.47 36.0312C155.261 35.7604 154.977 35.5419 154.62 35.3757C154.263 35.2095 153.826 35.1264 153.309 35.1264C152.614 35.1264 152.029 35.2772 151.555 35.5788C151.087 35.8804 150.856 36.2713 150.863 36.7514C150.856 37.1638 151.007 37.4993 151.315 37.7578C151.629 38.0163 152.146 38.2287 152.866 38.3949L155.285 38.9119C156.627 39.2012 157.624 39.6598 158.277 40.2876C158.935 40.9155 159.268 41.7372 159.274 42.7528C159.268 43.6454 159.006 44.4332 158.489 45.1165C157.978 45.7936 157.267 46.3229 156.356 46.7045C155.445 47.0862 154.399 47.277 153.217 47.277C151.481 47.277 150.084 46.9138 149.025 46.1875C147.967 45.455 147.336 44.4363 147.132 43.1314L150.392 42.8175C150.539 43.4576 150.853 43.9408 151.333 44.267C151.814 44.5933 152.438 44.7564 153.208 44.7564C154.002 44.7564 154.639 44.5933 155.119 44.267C155.605 43.9408 155.848 43.5376 155.848 43.0575C155.848 42.6513 155.691 42.3158 155.377 42.0511C155.07 41.7865 154.59 41.5833 153.937 41.4418L151.518 40.9339C150.158 40.6508 149.151 40.1738 148.499 39.5028C147.846 38.8258 147.523 37.9702 147.529 36.9361C147.523 36.062 147.76 35.3049 148.24 34.6648C148.727 34.0185 149.401 33.5199 150.262 33.169C151.13 32.812 152.131 32.6335 153.263 32.6335C154.925 32.6335 156.233 32.9875 157.187 33.6953C158.147 34.4032 158.741 35.3603 158.969 36.5668ZM167.796 30.9624V28.0909H182.882V30.9624H177.038V47H173.64V30.9624H167.796ZM187.794 47.2862C186.896 47.2862 186.086 47.1262 185.366 46.8061C184.652 46.4799 184.086 45.9998 183.667 45.3658C183.255 44.7318 183.049 43.95 183.049 43.0206C183.049 42.2204 183.196 41.5587 183.492 41.0355C183.787 40.5123 184.19 40.0938 184.701 39.7798C185.212 39.4659 185.788 39.2289 186.428 39.0689C187.074 38.9027 187.742 38.7827 188.431 38.7088C189.262 38.6226 189.936 38.5457 190.453 38.478C190.971 38.4041 191.346 38.2933 191.58 38.1456C191.82 37.9917 191.94 37.7547 191.94 37.4347V37.3793C191.94 36.6837 191.734 36.1451 191.321 35.7635C190.909 35.3819 190.315 35.1911 189.539 35.1911C188.721 35.1911 188.071 35.3696 187.591 35.7266C187.117 36.0836 186.797 36.5052 186.631 36.9915L183.51 36.5483C183.757 35.6866 184.163 34.9664 184.729 34.3878C185.295 33.803 185.988 33.366 186.806 33.0767C187.625 32.7812 188.53 32.6335 189.521 32.6335C190.204 32.6335 190.884 32.7135 191.561 32.8736C192.239 33.0336 192.857 33.2983 193.417 33.6676C193.977 34.0308 194.427 34.5263 194.765 35.1541C195.11 35.782 195.282 36.5668 195.282 37.5085V47H192.069V45.0518H191.958C191.755 45.4458 191.469 45.8151 191.1 46.1598C190.737 46.4983 190.278 46.7723 189.724 46.9815C189.176 47.1847 188.533 47.2862 187.794 47.2862ZM188.662 44.8303C189.333 44.8303 189.915 44.6979 190.407 44.4332C190.9 44.1624 191.278 43.8054 191.543 43.3622C191.814 42.919 191.949 42.4358 191.949 41.9126V40.2415C191.845 40.3277 191.666 40.4077 191.414 40.4815C191.167 40.5554 190.891 40.62 190.583 40.6754C190.275 40.7308 189.97 40.7801 189.669 40.8232C189.367 40.8662 189.105 40.9032 188.884 40.9339C188.385 41.0017 187.939 41.1125 187.545 41.2663C187.151 41.4202 186.84 41.6357 186.613 41.9126C186.385 42.1835 186.271 42.5343 186.271 42.9652C186.271 43.5807 186.496 44.0455 186.945 44.3594C187.394 44.6733 187.967 44.8303 188.662 44.8303ZM201.985 28.0909V47H198.643V28.0909H201.985ZM208.469 42.5497L208.46 38.5149H208.996L214.092 32.8182H217.998L211.729 39.7983H211.036L208.469 42.5497ZM205.422 47V28.0909H208.765V47H205.422ZM214.323 47L209.706 40.5462L211.959 38.1918L218.321 47H214.323Z" fill="white"/>
<path d="M24.8682 56.303L27.5622 46.468C25.9002 43.59 25.0262 40.324 25.0272 36.979C25.0322 26.514 33.5482 18 44.0142 18C49.0932 18.002 53.8592 19.979 57.4442 23.566C61.0282 27.154 63.0022 31.922 63.0002 36.994C62.9962 47.459 54.4782 55.974 44.0142 55.974H44.0062C40.8292 55.973 37.7062 55.176 34.9332 53.663L24.8682 56.303Z" fill="white"/>
<path d="M24.8677 56.803C24.7357 56.803 24.6077 56.751 24.5127 56.655C24.3877 56.528 24.3387 56.343 24.3857 56.172L27.0247 46.536C25.3887 43.63 24.5257 40.33 24.5277 36.98C24.5317 26.238 33.2727 17.5 44.0137 17.5C49.2237 17.502 54.1187 19.531 57.7977 23.213C61.4767 26.896 63.5017 31.79 63.4997 36.994C63.4957 47.735 54.7537 56.474 44.0137 56.474C40.8247 56.473 37.6697 55.686 34.8697 54.197L24.9947 56.786C24.9527 56.798 24.9107 56.803 24.8677 56.803Z" fill="white"/>
<path d="M44.0136 18C49.0926 18.002 53.8586 19.979 57.4436 23.566C61.0276 27.154 63.0016 31.922 62.9996 36.994C62.9956 47.459 54.4776 55.974 44.0136 55.974H44.0056C40.8286 55.973 37.7056 55.176 34.9326 53.663L24.8676 56.303L27.5616 46.468C25.8996 43.59 25.0256 40.324 25.0266 36.979C25.0316 26.514 33.5476 18 44.0136 18ZM44.0136 17C32.9976 17 24.0316 25.962 24.0266 36.979C24.0256 40.346 24.8756 43.664 26.4876 46.601L23.9026 56.04C23.8086 56.385 23.9046 56.753 24.1566 57.007C24.3466 57.199 24.6036 57.304 24.8676 57.304C24.9526 57.304 25.0376 57.293 25.1216 57.271L34.8086 54.731C37.6366 56.199 40.8066 56.974 44.0056 56.975C55.0296 56.975 63.9956 48.012 64.0006 36.995C64.0026 31.656 61.9256 26.636 58.1526 22.86C54.3776 19.083 49.3566 17.002 44.0136 17Z" fill="#CFD8DC"/>
<path d="M55.1764 25.8321C52.1964 22.8501 48.2354 21.2071 44.0194 21.2061C35.3154 21.2061 28.2364 28.2821 28.2324 36.9801C28.2314 39.9611 29.0654 42.8631 30.6454 45.3761L31.0214 45.9731L29.4264 51.7941L35.3994 50.2281L35.9764 50.5701C38.3984 52.0081 41.1764 52.7681 44.0084 52.7691H44.0144C52.7124 52.7691 59.7914 45.6921 59.7944 36.9931C59.7954 32.7781 58.1564 28.8141 55.1764 25.8321Z" fill="#35D257"/>
<path fill-rule="evenodd" clip-rule="evenodd" d="M39.2682 29.0449C38.9132 28.2549 38.5392 28.2389 38.2002 28.2249C37.9232 28.2129 37.6072 28.2139 37.2912 28.2139C36.9752 28.2139 36.4612 28.3329 36.0262 28.8079C35.5912 29.2829 34.3652 30.4299 34.3652 32.7639C34.3652 35.0979 36.0652 37.3539 36.3022 37.6699C36.5392 37.9859 39.5842 42.9289 44.4062 44.8309C48.4132 46.4109 49.2292 46.0969 50.0992 46.0179C50.9692 45.9389 52.9062 44.8709 53.3012 43.7629C53.6962 42.6549 53.6962 41.7059 53.5782 41.5079C53.4592 41.3099 53.1432 41.1919 52.6692 40.9539C52.1952 40.7159 49.8622 39.5689 49.4272 39.4109C48.9922 39.2529 48.6762 39.1739 48.3592 39.6489C48.0432 40.1229 47.1342 41.1919 46.8572 41.5079C46.5802 41.8249 46.3032 41.8649 45.8292 41.6269C45.3552 41.3889 43.8272 40.8889 42.0142 39.2729C40.6042 38.0159 39.6522 36.4629 39.3752 35.9879C39.0982 35.5139 39.3452 35.2569 39.5832 35.0199C39.7962 34.8069 40.0572 34.4659 40.2952 34.1889C40.5322 33.9119 40.6112 33.7139 40.7692 33.3979C40.9272 33.0809 40.8482 32.8039 40.7292 32.5669C40.6122 32.3289 39.6902 29.9829 39.2682 29.0449Z" fill="white"/>
</svg>
