<svg width="1362" height="478" viewBox="0 0 1362 478" fill="none" xmlns="http://www.w3.org/2000/svg">
<path d="M312.525 40.924H25.7024V439.868H312.525V40.924Z" fill="white"/>
<path d="M646.703 37.2044H359.88V436.149H646.703V37.2044Z" fill="white"/>
<path d="M1011.17 39.8492H724.347V438.794H1011.17V39.8492Z" fill="white"/>
<path d="M1331.74 37.0174H1044.92V435.962H1331.74V37.0174Z" fill="white"/>
<path d="M0 33.1016V444.242L328.964 477.344V0L0 33.1016ZM169.499 102.3C179.035 101.712 187.879 101.864 196.013 102.764C204.328 103.663 212.096 105.309 219.305 107.709C226.559 109.996 233.364 113.037 239.71 116.835C246.092 120.525 252.257 124.899 258.202 129.963L252.89 138.821C251.124 142.025 248.479 142.852 244.964 141.31C243.085 140.611 240.396 138.91 236.905 136.214C233.425 133.526 228.659 130.779 222.62 127.978C216.612 125.191 209.176 122.814 200.344 120.847C191.7 118.89 181.224 118.252 168.971 118.916C152.918 119.785 138.577 123.286 125.886 129.377C113.454 135.393 102.927 143.576 94.2501 153.914C85.7515 164.165 79.2047 176.447 74.577 190.774C70.0764 205.038 67.8345 220.959 67.8345 238.582C67.8345 256.445 70.0764 272.547 74.577 286.931C79.2047 301.379 85.8584 313.786 94.5766 324.17C103.477 334.645 114.346 342.912 127.24 348.958C140.29 355.077 155.173 358.619 171.964 359.535C179.39 359.94 186.272 359.808 192.598 359.136C199.08 358.466 205.237 357.391 211.062 355.907C217.04 354.292 222.803 352.271 228.349 349.84C234.047 347.273 239.836 344.373 245.717 341.136V266.846L195.833 266.232C194.514 266.216 193.376 265.758 192.418 264.858C191.581 263.96 191.161 262.939 191.161 261.797V251.14L263.35 251.542V350.373C249.926 359.49 235.786 366.187 220.96 370.501C206.325 374.759 190.087 376.313 172.316 375.218C152.746 374.012 135.448 369.79 120.325 362.614C105.41 355.414 92.8274 345.876 82.4993 334.01C72.3777 322.142 64.6376 308.13 59.2261 291.952C53.9476 275.86 51.3183 258.09 51.3183 238.583C51.3183 219.075 53.8948 201.366 59.0672 185.396C64.3715 169.223 71.9505 155.279 81.8517 143.544C91.9552 131.573 104.251 122.054 118.814 115.001C133.575 107.729 150.439 103.475 169.499 102.3Z" fill="black"/>
<path d="M344.131 0.0289078V477.315L673.049 444.242V33.1016L344.131 0.0289078ZM527.477 103.781C540.022 104.554 551.135 107.39 560.855 112.263C570.599 117.098 579.38 124.087 587.223 133.212L583.309 141.378C582.328 143.393 580.91 144.359 579.052 144.277C577.629 144.214 575.767 143.039 573.461 140.746C571.26 138.331 568.226 135.688 564.352 132.814C560.465 129.807 555.558 126.982 549.618 124.337C543.758 121.684 536.444 120.116 527.65 119.638C518.784 119.156 510.895 120.104 504.003 122.498C497.187 124.912 491.395 128.405 486.645 132.981C481.994 137.582 478.403 143.011 475.883 149.265C473.477 155.537 472.27 162.183 472.27 169.192C472.27 178.366 474.078 185.99 477.683 192.049C481.396 198.091 486.229 203.245 492.166 207.507C498.072 211.747 504.707 215.345 512.06 218.301C519.479 221.114 527.019 223.909 534.68 226.686C542.288 229.443 549.619 232.489 556.676 235.82C563.798 239.008 570.103 243.029 575.602 247.881C581.074 252.707 585.43 258.668 588.686 265.766C592.04 272.72 593.714 281.431 593.714 291.918C593.714 302.645 592.04 312.83 588.686 322.492C585.43 332.058 580.636 340.515 574.284 347.873C567.894 355.274 560.021 361.335 550.63 366.05C541.157 370.683 530.228 373.393 517.802 374.159C501.482 375.164 487.239 372.94 475.161 367.431C462.95 361.735 452.141 353.582 442.775 342.954L447.961 334.214C449.438 332.221 451.16 331.187 453.123 331.107C454.226 331.062 455.634 331.775 457.345 333.244C459.054 334.71 461.125 336.542 463.557 338.739C465.985 340.803 468.89 343.097 472.27 345.616C475.641 348 479.541 350.223 483.963 352.284C488.369 354.211 493.407 355.781 499.071 356.994C504.705 358.2 511.07 358.608 518.149 358.223C527.823 357.697 536.389 355.684 543.871 352.198C551.303 348.614 557.513 344.007 562.522 338.381C567.618 332.776 571.479 326.275 574.119 318.869C576.752 311.359 578.066 303.421 578.066 295.042C578.066 285.936 576.37 278.5 572.966 272.721C569.661 266.8 565.238 261.91 559.685 258.051C554.104 254.049 547.705 250.71 540.475 248.032C533.312 245.335 525.872 242.683 518.149 240.075C510.371 237.45 502.714 234.492 495.181 231.199C487.715 227.883 480.977 223.661 474.98 218.53C468.951 213.243 464.045 206.729 460.274 198.989C456.613 191.097 454.777 181.301 454.777 169.614C454.777 160.497 456.429 151.761 459.725 143.43C463.011 135.124 467.803 127.94 474.079 121.883C480.32 115.732 487.952 111.026 496.95 107.76C505.993 104.402 516.179 103.085 527.477 103.781Z" fill="black"/>
<path d="M688.274 33.1016V444.243L1017.16 477.3V0.0436554L688.274 33.1016ZM843.336 104.699C852.746 104.126 861.767 105.088 870.387 107.601C879.194 110.001 886.988 114.071 893.746 119.825C900.666 125.479 906.161 132.842 910.206 141.914C914.267 150.889 916.301 161.581 916.301 173.962C916.301 184.279 914.759 193.918 911.68 202.859C908.733 211.647 904.691 220.1 899.57 228.208C894.471 236.279 888.552 244.119 881.826 251.724C875.258 259.157 868.373 266.732 861.178 274.443L785.716 355.645C789.232 354.863 792.869 354.328 796.63 354.042C800.516 353.761 804.417 353.723 808.331 353.931L916.116 359.669C918.093 359.774 919.64 360.504 920.755 361.856C921.871 363.08 922.429 364.662 922.429 366.602V377.463L764.212 367.829V361.692C764.212 360.368 764.482 359.061 765.02 357.767C765.666 356.358 766.474 355.197 767.444 354.286L848.554 266.919C855.55 259.352 862.061 251.987 868.078 244.827C874.127 237.629 879.373 230.331 883.803 222.941C888.371 215.521 891.93 207.891 894.471 200.065C897.017 192.221 898.294 183.879 898.294 175.051C898.294 165.071 896.715 156.492 893.564 149.329C890.422 142.059 886.265 136.191 881.107 131.729C875.972 127.287 870.031 124.11 863.297 122.189C856.603 120.28 849.718 119.521 842.643 119.903C834.925 120.319 827.83 122.003 821.349 124.945C815.018 127.74 809.396 131.531 804.473 136.311C799.684 140.943 795.689 146.436 792.483 152.793C789.396 159.005 787.253 165.775 786.046 173.11C785.278 175.808 784.236 177.601 782.922 178.488C781.719 179.371 780.027 179.72 777.847 179.538L769.873 178.311C771.279 167.284 773.989 157.4 778.011 148.647C782.048 139.861 787.198 132.325 793.478 126.036C799.794 119.709 807.154 114.758 815.58 111.194C824.072 107.479 833.317 105.309 843.336 104.699Z" fill="black"/>
<path d="M1032.42 0.00492096V477.337L1361.32 444.24V33.1016L1032.42 0.00492096ZM1100.88 99.832L1195.36 105.527C1212.75 106.575 1228.39 110.546 1242.36 117.385C1256.26 124.143 1268.02 133.324 1277.7 144.914C1287.29 156.399 1294.67 170.045 1299.88 185.872C1305.07 201.621 1307.65 219.172 1307.65 238.583C1307.65 258.112 1305.07 275.721 1299.88 291.47C1294.67 307.297 1287.29 320.943 1277.7 332.428C1268.02 344.018 1256.26 353.199 1242.36 359.957C1228.39 366.796 1212.75 370.767 1195.36 371.815L1100.88 377.51V99.832ZM1120.34 117.154V360.188L1195.36 356.196C1210.1 355.412 1223.4 352.102 1235.29 346.31C1247.05 340.58 1257.03 332.67 1265.28 322.59C1273.47 312.587 1279.76 300.542 1284.18 286.445C1288.58 272.406 1290.78 256.468 1290.78 238.582C1290.78 220.816 1288.58 204.935 1284.18 190.897C1279.76 176.8 1273.47 164.755 1265.28 154.752C1257.03 144.672 1247.05 136.762 1235.29 131.032C1223.4 125.239 1210.1 121.93 1195.36 121.146L1120.34 117.154Z" fill="black"/>
</svg>
